<?xml version="1.0" encoding="UTF-8"?>
<svg xmlns="http://www.w3.org/2000/svg" viewBox="0 0 24 24" width="48" height="48" fill="currentColor" aria-hidden="true">
  <path d="M12 2.25C6.75 2.25 2.25 6.75 2.25 12c0 4.875 3.15 8.925 7.5 10.35.55.1.75-.225.75-.5v-2.25c-2.7.6-3.15-1.275-3.15-1.275-.45-1.2-1.05-1.5-1.05-1.5-.9-.6 0-.6 0-.6 1.2 0 1.8 1.275 1.8 1.275 1.8 3.225 3.75 2.175 4.65 1.875.15-1.05.6-1.8 1.35-2.175-2.7-.3-5.4-1.35-5.4-6.075 0-1.35.45-2.475 1.2-3.375-.15-.3-.6-1.5.15-3.075 0 0 1.05-.375 3.45 1.35a12.234 12.234 0 0 1 3.15-.45c1.05.075 2.1.3 3.15.75 2.4-1.725 3.45-1.35 3.45-1.35.75 1.575.3 2.775.15 3.075.75.9 1.2 2.025 1.2 3.375 0 4.725-2.7 5.775-5.4 6.075 0 .075.9.375 1.275 1.05 1.275.75.075 1.275.375 1.8 1.125 1.575.75 3.45-.375 4.5-1.875.075-.225.15-.375.15-.375v1.05c0 .275.225.6.75.5 4.35-1.425 7.5-5.475 7.5-10.35 0-5.25-4.5-9.75-10.5-9.75z"/>
</svg>
